<mxfile host="65bd71144e">
    <diagram id="N15Gc7Y7Y49GiwH0infV" name="Page-1">
        <mxGraphModel dx="1072" dy="515" grid="1" gridSize="10" guides="1" tooltips="1" connect="1" arrows="1" fold="1" page="1" pageScale="1" pageWidth="1200" pageHeight="1600" math="0" shadow="0">
            <root>
                <mxCell id="0"/>
                <mxCell id="1" parent="0"/>
                <mxCell id="2" value="" style="shape=image;html=1;verticalLabelPosition=bottom;verticalAlign=top;imageAspect=1;aspect=fixed;image=img/clipart/Gear_128x128.png;direction=south;" vertex="1" parent="1">
                    <mxGeometry x="494.51" y="535.49" width="74.46" height="63.48" as="geometry"/>
                </mxCell>
            </root>
        </mxGraphModel>
    </diagram>
</mxfile>